<svg width="154" height="81" viewBox="0 0 154 81" fill="none" xmlns="http://www.w3.org/2000/svg">
<path d="M23.6783 22.5L21.7801 39M17.1783 79L21.7801 39M21.7801 39C21.7801 39 6.61804 34.0413 2.17834 26C-7.37623 8.69461 44.1783 1.47052 48.6783 6.00001C59.6783 17.0719 8.66528 40 13.6783 50.5C16.4131 56.2282 68.1784 56 68.1784 56" stroke="black" stroke-width="2" stroke-linecap="round" stroke-linejoin="round"/>
<path d="M39.1783 42C39.1783 42 37.0614 40.1719 35.6783 40.5C33.2751 41.0701 30.5737 43.7908 31.6783 46C33.2404 49.1242 39.6783 42 39.6783 42C39.6783 42 38.7595 44.7367 39.6783 46C41.2404 48.1479 45.1783 41 45.1783 41C45.1783 41 44.0434 45.4111 45.1783 47C47.1309 49.7337 52.1783 40.5 52.1783 40.5L49.1783 67" stroke="black" stroke-width="2" stroke-linecap="round" stroke-linejoin="round"/>
<path d="M61.1728 18.1047C61.2306 17.5554 60.8322 17.0633 60.283 17.0055C59.7337 16.9477 59.2416 17.3461 59.1838 17.8953L61.1728 18.1047ZM57.1783 46.5L56.1833 46.3999C56.1281 46.9485 56.5274 47.4383 57.0759 47.4947C57.6244 47.5512 58.1151 47.153 58.1728 46.6047L57.1783 46.5ZM63.1783 46.5L62.1833 46.6001C62.2234 46.9983 62.497 47.3342 62.8788 47.4541C63.2606 47.574 63.6771 47.4546 63.9376 47.1508L63.1783 46.5ZM71.6638 41.8575C72.1374 42.1416 72.7516 41.9881 73.0358 41.5145C73.3199 41.0409 73.1664 40.4267 72.6928 40.1425L71.6638 41.8575ZM72.6783 41L73.6093 41.3649C73.8071 40.8603 73.5669 40.29 73.0678 40.079C72.5686 39.8679 71.9922 40.0928 71.7679 40.5862L72.6783 41ZM72.6783 46.5L72.0056 47.2399L72.6783 46.5ZM76.6783 41H77.6783C77.6783 40.4947 77.3013 40.0688 76.7998 40.0074C76.2982 39.946 75.8297 40.2684 75.7078 40.7588L76.6783 41ZM76.6783 46.5H75.6783C75.6783 46.9446 75.9718 47.3358 76.3987 47.4601C76.8256 47.5844 77.2833 47.412 77.522 47.0369L76.6783 46.5ZM83.1783 46.5L82.4215 47.1536L83.1783 46.5ZM94.992 47.4495C95.5164 47.2763 95.8011 46.7108 95.6278 46.1863C95.4546 45.6619 94.8891 45.3772 94.3646 45.5505L94.992 47.4495ZM59.1838 17.8953L56.1838 46.3953L58.1728 46.6047L61.1728 18.1047L59.1838 17.8953ZM57.1783 46.5C58.1733 46.6001 58.1733 46.6003 58.1732 46.6005C58.1732 46.6005 58.1732 46.6007 58.1732 46.6007C58.1732 46.6008 58.1732 46.6009 58.1732 46.6008C58.1732 46.6007 58.1733 46.6003 58.1733 46.5996C58.1735 46.5981 58.1738 46.5954 58.1742 46.5914C58.1751 46.5834 58.1765 46.5705 58.1785 46.5529C58.1826 46.5178 58.189 46.4642 58.1982 46.3949C58.2166 46.2561 58.2457 46.0551 58.2881 45.8128C58.3734 45.3245 58.5094 44.6859 58.7124 44.0574C58.9195 43.4162 59.1754 42.8527 59.4705 42.4684C59.7605 42.0907 59.9926 42 60.1783 42V40C59.1407 40 58.3861 40.5968 57.8842 41.2503C57.3875 41.8973 57.0463 42.7088 56.8092 43.4426C56.5681 44.1891 56.4128 44.9255 56.3179 45.4685C56.2702 45.7418 56.2369 45.9705 56.2155 46.1324C56.2048 46.2135 56.197 46.2781 56.1917 46.3236C56.1891 46.3463 56.1871 46.3642 56.1857 46.3771C56.185 46.3835 56.1845 46.3886 56.1841 46.3924C56.1839 46.3943 56.1837 46.3959 56.1836 46.3972C56.1835 46.3978 56.1835 46.3983 56.1834 46.3988C56.1834 46.399 56.1834 46.3993 56.1834 46.3994C56.1833 46.3997 56.1833 46.3999 57.1783 46.5ZM60.1783 42C60.364 42 60.5961 42.0907 60.8861 42.4684C61.1812 42.8527 61.4371 43.4162 61.6442 44.0574C61.8472 44.6859 61.9832 45.3245 62.0685 45.8128C62.1109 46.0551 62.14 46.2561 62.1584 46.3949C62.1676 46.4642 62.174 46.5178 62.1781 46.5529C62.1801 46.5705 62.1815 46.5834 62.1824 46.5914C62.1828 46.5954 62.1831 46.5981 62.1833 46.5996C62.1833 46.6003 62.1834 46.6007 62.1834 46.6008C62.1834 46.6009 62.1834 46.6008 62.1834 46.6007C62.1834 46.6007 62.1834 46.6005 62.1834 46.6005C62.1833 46.6003 62.1833 46.6001 63.1783 46.5C64.1733 46.3999 64.1733 46.3997 64.1732 46.3994C64.1732 46.3993 64.1732 46.399 64.1732 46.3988C64.1731 46.3983 64.1731 46.3978 64.173 46.3972C64.1729 46.3959 64.1727 46.3943 64.1725 46.3924C64.1721 46.3886 64.1716 46.3835 64.1709 46.3771C64.1695 46.3642 64.1675 46.3463 64.1649 46.3236C64.1596 46.2781 64.1518 46.2135 64.1411 46.1324C64.1196 45.9705 64.0864 45.7418 64.0387 45.4685C63.9438 44.9255 63.7885 44.1891 63.5474 43.4426C63.3103 42.7088 62.9691 41.8973 62.4724 41.2503C61.9705 40.5968 61.2159 40 60.1783 40V42ZM63.1783 46.5C63.9376 47.1508 63.9376 47.1508 63.9376 47.1508C63.9376 47.1508 63.9376 47.1507 63.9376 47.1507C63.9377 47.1506 63.9378 47.1505 63.938 47.1503C63.9383 47.1499 63.9388 47.1493 63.9395 47.1485C63.9409 47.1469 63.9429 47.1445 63.9457 47.1413C63.9513 47.1348 63.9597 47.125 63.9707 47.1122C63.9928 47.0864 64.0257 47.0483 64.0683 46.9989C64.1534 46.9002 64.2776 46.7567 64.4329 46.5781C64.7436 46.2207 65.1787 45.7235 65.6757 45.1644C66.6738 44.0415 67.9075 42.6851 68.8854 41.7071L67.4712 40.2929C66.4491 41.3149 65.1828 42.7085 64.1809 43.8356C63.6779 44.4015 63.238 44.9043 62.9237 45.2657C62.7665 45.4465 62.6407 45.592 62.554 45.6925C62.5106 45.7427 62.477 45.7817 62.4542 45.8082C62.4428 45.8215 62.4341 45.8317 62.4282 45.8385C62.4252 45.842 62.423 45.8446 62.4215 45.8464C62.4207 45.8473 62.4201 45.848 62.4197 45.8484C62.4195 45.8487 62.4194 45.8488 62.4192 45.849C62.4192 45.849 62.4191 45.8491 62.4191 45.8491C62.4191 45.8492 62.419 45.8492 63.1783 46.5ZM68.8854 41.7071C69.2743 41.3182 69.8375 41.2553 70.5159 41.4119C70.8389 41.4864 71.1333 41.6007 71.3504 41.6994C71.4574 41.7481 71.5417 41.7911 71.5967 41.8205C71.6242 41.8351 71.644 41.8463 71.6556 41.8528C71.6613 41.8561 71.6649 41.8582 71.6664 41.859C71.6671 41.8594 71.6672 41.8595 71.6668 41.8593C71.6666 41.8592 71.6662 41.8589 71.6657 41.8586C71.6655 41.8585 71.6652 41.8583 71.6649 41.8581C71.6647 41.858 71.6644 41.8579 71.6644 41.8578C71.6641 41.8577 71.6638 41.8575 72.1783 41C72.6928 40.1425 72.6925 40.1423 72.6922 40.1421C72.6921 40.1421 72.6917 40.1419 72.6915 40.1417C72.691 40.1414 72.6905 40.1411 72.69 40.1408C72.6889 40.1402 72.6876 40.1394 72.6862 40.1386C72.6833 40.1369 72.6799 40.1348 72.6758 40.1325C72.6677 40.1277 72.6571 40.1216 72.6442 40.1142C72.6183 40.0995 72.583 40.0799 72.5392 40.0565C72.4516 40.0097 72.3289 39.9473 72.178 39.8787C71.8795 39.743 71.4552 39.5761 70.9657 39.4631C70.0191 39.2447 68.5823 39.1818 67.4712 40.2929L68.8854 41.7071ZM68.1783 41C67.3696 40.4118 67.3694 40.412 67.3693 40.4122C67.3692 40.4123 67.369 40.4125 67.3689 40.4127C67.3686 40.4131 67.3683 40.4136 67.3679 40.4142C67.3671 40.4153 67.366 40.4167 67.3647 40.4185C67.3622 40.4221 67.3587 40.4269 67.3542 40.4331C67.3454 40.4454 67.333 40.4628 67.3173 40.485C67.286 40.5294 67.2416 40.5929 67.187 40.673C67.078 40.8329 66.9275 41.0597 66.7585 41.3317C66.4247 41.869 66.0017 42.6101 65.6903 43.3714C65.4009 44.0787 65.1135 45.0208 65.3047 45.8622C65.4117 46.3328 65.6718 46.7834 66.1402 47.0957C66.5848 47.3921 67.1215 47.5 67.6783 47.5V45.5C67.3601 45.5 67.2562 45.436 67.2496 45.4316C67.2488 45.4311 67.2563 45.4369 67.2626 45.4466C67.2676 45.4542 67.2618 45.4491 67.255 45.419C67.2119 45.2292 67.2682 44.7963 67.5413 44.1286C67.7924 43.5149 68.1506 42.881 68.4574 42.3871C68.6088 42.1434 68.7434 41.9406 68.8395 41.7997C68.8874 41.7293 68.9256 41.6747 68.9511 41.6385C68.9639 41.6205 68.9735 41.607 68.9796 41.5985C68.9827 41.5942 68.9848 41.5912 68.9861 41.5895C68.9867 41.5886 68.9871 41.5881 68.9873 41.5878C68.9874 41.5877 68.9874 41.5877 68.9873 41.5878C68.9873 41.5878 68.9872 41.5879 68.9872 41.5879C68.9871 41.588 68.987 41.5882 68.1783 41ZM67.6783 47.5C68.6635 47.5 69.5191 46.9684 70.1749 46.3913C70.8495 45.7976 71.4507 45.034 71.942 44.3133C72.438 43.5859 72.8476 42.8643 73.1321 42.3279C73.2749 42.0586 73.3875 41.8334 73.465 41.6742C73.5038 41.5945 73.534 41.5312 73.5547 41.4869C73.5651 41.4648 73.5732 41.4474 73.5789 41.4351C73.5817 41.4289 73.584 41.4241 73.5856 41.4205C73.5864 41.4187 73.5871 41.4173 73.5876 41.4162C73.5879 41.4156 73.5881 41.4151 73.5882 41.4147C73.5883 41.4145 73.5884 41.4143 73.5885 41.4142C73.5886 41.414 73.5887 41.4138 72.6783 41C71.7679 40.5862 71.768 40.5861 71.7681 40.5859C71.7681 40.5859 71.7681 40.5858 71.7681 40.5858C71.7682 40.5857 71.7681 40.5857 71.7681 40.5858C71.768 40.5861 71.7677 40.5866 71.7674 40.5875C71.7666 40.5892 71.7652 40.5922 71.7632 40.5965C71.7593 40.605 71.753 40.6185 71.7445 40.6366C71.7274 40.6729 71.7014 40.7278 71.6669 40.7985C71.598 40.94 71.4958 41.1445 71.3651 41.3909C71.1027 41.8857 70.7311 42.5391 70.2896 43.1867C69.8434 43.841 69.3508 44.4524 68.8536 44.8899C68.3375 45.3441 67.9431 45.5 67.6783 45.5V47.5ZM72.6783 41C71.7473 40.6351 71.7472 40.6353 71.7471 40.6356C71.747 40.6357 71.7469 40.6359 71.7468 40.6361C71.7467 40.6365 71.7465 40.637 71.7463 40.6375C71.7459 40.6386 71.7454 40.6399 71.7448 40.6415C71.7436 40.6446 71.742 40.6486 71.7401 40.6537C71.7362 40.6638 71.7309 40.6777 71.7243 40.6953C71.7112 40.7303 71.6929 40.78 71.6707 40.8426C71.6263 40.9677 71.5659 41.1451 71.4992 41.3616C71.3665 41.7919 71.2048 42.3894 71.0959 43.0441C70.9882 43.6912 70.9242 44.4402 71.0159 45.1578C71.107 45.871 71.3668 46.6592 72.0056 47.2399L73.351 45.7601C73.1951 45.6184 73.0577 45.3579 72.9998 44.9044C72.9424 44.4552 72.9777 43.9196 73.0688 43.3723C73.1585 42.8326 73.2947 42.326 73.4104 41.9508C73.4678 41.7646 73.5192 41.6139 73.5555 41.5115C73.5737 41.4604 73.588 41.4215 73.5973 41.3965C73.602 41.384 73.6055 41.375 73.6075 41.3697C73.6085 41.367 73.6092 41.3652 73.6095 41.3644C73.6097 41.364 73.6097 41.3639 73.6097 41.3639C73.6097 41.364 73.6097 41.3641 73.6096 41.3642C73.6096 41.3643 73.6095 41.3645 73.6095 41.3645C73.6094 41.3647 73.6093 41.3649 72.6783 41ZM72.0056 47.2399C72.4244 47.6206 72.944 47.861 73.5327 47.8221C74.0914 47.7852 74.5429 47.5068 74.8749 47.2108C75.5177 46.6378 76.021 45.7219 76.3951 44.894C76.7845 44.0319 77.0971 43.1181 77.3105 42.4301C77.4179 42.0838 77.5017 41.7896 77.5589 41.5809C77.5876 41.4764 77.6096 41.3932 77.6247 41.3352C77.6322 41.3062 77.6381 41.2836 77.6421 41.2677C77.6441 41.2598 77.6457 41.2536 77.6468 41.2491C77.6473 41.2469 77.6478 41.2451 77.6481 41.2438C77.6483 41.2431 77.6484 41.2426 77.6485 41.2422C77.6486 41.2419 77.6487 41.2417 77.6487 41.2416C77.6487 41.2414 77.6488 41.2412 76.6783 41C75.7078 40.7588 75.7079 40.7587 75.7079 40.7586C75.7079 40.7586 75.7079 40.7585 75.7079 40.7585C75.7079 40.7585 75.7079 40.7587 75.7078 40.7589C75.7077 40.7594 75.7074 40.7603 75.7071 40.7616C75.7064 40.7644 75.7053 40.7688 75.7038 40.7749C75.7006 40.7872 75.6958 40.8061 75.6892 40.8312C75.6762 40.8815 75.6563 40.9564 75.6301 41.0519C75.5777 41.2432 75.5 41.5159 75.4002 41.8378C75.1992 42.4862 74.9145 43.3135 74.5725 44.0705C74.215 44.8616 73.8526 45.4428 73.544 45.718C73.4003 45.846 73.3547 45.8295 73.401 45.8265C73.4772 45.8214 73.4692 45.8675 73.351 45.7601L72.0056 47.2399ZM75.6783 41C75.6783 41.0039 75.6783 41.0078 75.6783 41.0117C75.6783 41.0157 75.6783 41.0196 75.6783 41.0235C75.6783 41.0274 75.6783 41.0314 75.6783 41.0353C75.6783 41.0392 75.6783 41.0432 75.6783 41.0471C75.6783 41.0511 75.6783 41.0551 75.6783 41.059C75.6783 41.063 75.6783 41.0669 75.6783 41.0709C75.6783 41.0749 75.6783 41.0789 75.6783 41.0829C75.6783 41.0868 75.6783 41.0908 75.6783 41.0948C75.6783 41.0988 75.6783 41.1028 75.6783 41.1068C75.6783 41.1108 75.6783 41.1148 75.6783 41.1189C75.6783 41.1229 75.6783 41.1269 75.6783 41.1309C75.6783 41.135 75.6783 41.139 75.6783 41.143C75.6783 41.1471 75.6783 41.1511 75.6783 41.1552C75.6783 41.1592 75.6783 41.1633 75.6783 41.1673C75.6783 41.1714 75.6783 41.1754 75.6783 41.1795C75.6783 41.1836 75.6783 41.1877 75.6783 41.1917C75.6783 41.1958 75.6783 41.1999 75.6783 41.204C75.6783 41.2081 75.6783 41.2122 75.6783 41.2163C75.6783 41.2204 75.6783 41.2245 75.6783 41.2286C75.6783 41.2327 75.6783 41.2368 75.6783 41.2409C75.6783 41.2451 75.6783 41.2492 75.6783 41.2533C75.6783 41.2575 75.6783 41.2616 75.6783 41.2657C75.6783 41.2699 75.6783 41.274 75.6783 41.2782C75.6783 41.2823 75.6783 41.2865 75.6783 41.2906C75.6783 41.2948 75.6783 41.2989 75.6783 41.3031C75.6783 41.3073 75.6783 41.3115 75.6783 41.3156C75.6783 41.3198 75.6783 41.324 75.6783 41.3282C75.6783 41.3324 75.6783 41.3366 75.6783 41.3408C75.6783 41.345 75.6783 41.3492 75.6783 41.3534C75.6783 41.3576 75.6783 41.3618 75.6783 41.366C75.6783 41.3702 75.6783 41.3744 75.6783 41.3787C75.6783 41.3829 75.6783 41.3871 75.6783 41.3914C75.6783 41.3956 75.6783 41.3998 75.6783 41.4041C75.6783 41.4083 75.6783 41.4126 75.6783 41.4168C75.6783 41.4211 75.6783 41.4253 75.6783 41.4296C75.6783 41.4338 75.6783 41.4381 75.6783 41.4424C75.6783 41.4467 75.6783 41.4509 75.6783 41.4552C75.6783 41.4595 75.6783 41.4638 75.6783 41.4681C75.6783 41.4723 75.6783 41.4766 75.6783 41.4809C75.6783 41.4852 75.6783 41.4895 75.6783 41.4938C75.6783 41.4981 75.6783 41.5024 75.6783 41.5068C75.6783 41.5111 75.6783 41.5154 75.6783 41.5197C75.6783 41.524 75.6783 41.5284 75.6783 41.5327C75.6783 41.537 75.6783 41.5413 75.6783 41.5457C75.6783 41.55 75.6783 41.5544 75.6783 41.5587C75.6783 41.5631 75.6783 41.5674 75.6783 41.5718C75.6783 41.5761 75.6783 41.5805 75.6783 41.5848C75.6783 41.5892 75.6783 41.5936 75.6783 41.5979C75.6783 41.6023 75.6783 41.6067 75.6783 41.6111C75.6783 41.6154 75.6783 41.6198 75.6783 41.6242C75.6783 41.6286 75.6783 41.633 75.6783 41.6374C75.6783 41.6418 75.6783 41.6462 75.6783 41.6506C75.6783 41.655 75.6783 41.6594 75.6783 41.6638C75.6783 41.6682 75.6783 41.6726 75.6783 41.677C75.6783 41.6814 75.6783 41.6858 75.6783 41.6903C75.6783 41.6947 75.6783 41.6991 75.6783 41.7035C75.6783 41.708 75.6783 41.7124 75.6783 41.7168C75.6783 41.7213 75.6783 41.7257 75.6783 41.7302C75.6783 41.7346 75.6783 41.7391 75.6783 41.7435C75.6783 41.748 75.6783 41.7524 75.6783 41.7569C75.6783 41.7613 75.6783 41.7658 75.6783 41.7703C75.6783 41.7747 75.6783 41.7792 75.6783 41.7837C75.6783 41.7881 75.6783 41.7926 75.6783 41.7971C75.6783 41.8016 75.6783 41.8061 75.6783 41.8105C75.6783 41.815 75.6783 41.8195 75.6783 41.824C75.6783 41.8285 75.6783 41.833 75.6783 41.8375C75.6783 41.842 75.6783 41.8465 75.6783 41.851C75.6783 41.8555 75.6783 41.86 75.6783 41.8645C75.6783 41.869 75.6783 41.8736 75.6783 41.8781C75.6783 41.8826 75.6783 41.8871 75.6783 41.8916C75.6783 41.8962 75.6783 41.9007 75.6783 41.9052C75.6783 41.9098 75.6783 41.9143 75.6783 41.9188C75.6783 41.9234 75.6783 41.9279 75.6783 41.9325C75.6783 41.937 75.6783 41.9415 75.6783 41.9461C75.6783 41.9506 75.6783 41.9552 75.6783 41.9597C75.6783 41.9643 75.6783 41.9689 75.6783 41.9734C75.6783 41.978 75.6783 41.9825 75.6783 41.9871C75.6783 41.9917 75.6783 41.9963 75.6783 42.0008C75.6783 42.0054 75.6783 42.01 75.6783 42.0145C75.6783 42.0191 75.6783 42.0237 75.6783 42.0283C75.6783 42.0329 75.6783 42.0375 75.6783 42.042C75.6783 42.0466 75.6783 42.0512 75.6783 42.0558C75.6783 42.0604 75.6783 42.065 75.6783 42.0696C75.6783 42.0742 75.6783 42.0788 75.6783 42.0834C75.6783 42.088 75.6783 42.0926 75.6783 42.0972C75.6783 42.1019 75.6783 42.1065 75.6783 42.1111C75.6783 42.1157 75.6783 42.1203 75.6783 42.1249C75.6783 42.1296 75.6783 42.1342 75.6783 42.1388C75.6783 42.1434 75.6783 42.1481 75.6783 42.1527C75.6783 42.1573 75.6783 42.1619 75.6783 42.1666C75.6783 42.1712 75.6783 42.1758 75.6783 42.1805C75.6783 42.1851 75.6783 42.1898 75.6783 42.1944C75.6783 42.1991 75.6783 42.2037 75.6783 42.2083C75.6783 42.213 75.6783 42.2176 75.6783 42.2223C75.6783 42.227 75.6783 42.2316 75.6783 42.2363C75.6783 42.2409 75.6783 42.2456 75.6783 42.2502C75.6783 42.2549 75.6783 42.2596 75.6783 42.2642C75.6783 42.2689 75.6783 42.2736 75.6783 42.2782C75.6783 42.2829 75.6783 42.2876 75.6783 42.2923C75.6783 42.2969 75.6783 42.3016 75.6783 42.3063C75.6783 42.311 75.6783 42.3156 75.6783 42.3203C75.6783 42.325 75.6783 42.3297 75.6783 42.3344C75.6783 42.3391 75.6783 42.3438 75.6783 42.3484C75.6783 42.3531 75.6783 42.3578 75.6783 42.3625C75.6783 42.3672 75.6783 42.3719 75.6783 42.3766C75.6783 42.3813 75.6783 42.386 75.6783 42.3907C75.6783 42.3954 75.6783 42.4001 75.6783 42.4048C75.6783 42.4095 75.6783 42.4142 75.6783 42.4189C75.6783 42.4236 75.6783 42.4283 75.6783 42.4331C75.6783 42.4378 75.6783 42.4425 75.6783 42.4472C75.6783 42.4519 75.6783 42.4566 75.6783 42.4613C75.6783 42.4661 75.6783 42.4708 75.6783 42.4755C75.6783 42.4802 75.6783 42.4849 75.6783 42.4897C75.6783 42.4944 75.6783 42.4991 75.6783 42.5038C75.6783 42.5086 75.6783 42.5133 75.6783 42.518C75.6783 42.5228 75.6783 42.5275 75.6783 42.5322C75.6783 42.5369 75.6783 42.5417 75.6783 42.5464C75.6783 42.5512 75.6783 42.5559 75.6783 42.5606C75.6783 42.5654 75.6783 42.5701 75.6783 42.5748C75.6783 42.5796 75.6783 42.5843 75.6783 42.5891C75.6783 42.5938 75.6783 42.5986 75.6783 42.6033C75.6783 42.608 75.6783 42.6128 75.6783 42.6175C75.6783 42.6223 75.6783 42.627 75.6783 42.6318C75.6783 42.6365 75.6783 42.6413 75.6783 42.646C75.6783 42.6508 75.6783 42.6556 75.6783 42.6603C75.6783 42.6651 75.6783 42.6698 75.6783 42.6746C75.6783 42.6793 75.6783 42.6841 75.6783 42.6888C75.6783 42.6936 75.6783 42.6984 75.6783 42.7031C75.6783 42.7079 75.6783 42.7126 75.6783 42.7174C75.6783 42.7222 75.6783 42.7269 75.6783 42.7317C75.6783 42.7365 75.6783 42.7412 75.6783 42.746C75.6783 42.7508 75.6783 42.7555 75.6783 42.7603C75.6783 42.7651 75.6783 42.7698 75.6783 42.7746C75.6783 42.7794 75.6783 42.7841 75.6783 42.7889C75.6783 42.7937 75.6783 42.7985 75.6783 42.8032C75.6783 42.808 75.6783 42.8128 75.6783 42.8175C75.6783 42.8223 75.6783 42.8271 75.6783 42.8319C75.6783 42.8366 75.6783 42.8414 75.6783 42.8462C75.6783 42.851 75.6783 42.8557 75.6783 42.8605C75.6783 42.8653 75.6783 42.8701 75.6783 42.8749C75.6783 42.8796 75.6783 42.8844 75.6783 42.8892C75.6783 42.894 75.6783 42.8988 75.6783 42.9035C75.6783 42.9083 75.6783 42.9131 75.6783 42.9179C75.6783 42.9227 75.6783 42.9274 75.6783 42.9322C75.6783 42.937 75.6783 42.9418 75.6783 42.9466C75.6783 42.9513 75.6783 42.9561 75.6783 42.9609C75.6783 42.9657 75.6783 42.9705 75.6783 42.9753C75.6783 42.98 75.6783 42.9848 75.6783 42.9896C75.6783 42.9944 75.6783 42.9992 75.6783 43.004C75.6783 43.0088 75.6783 43.0135 75.6783 43.0183C75.6783 43.0231 75.6783 43.0279 75.6783 43.0327C75.6783 43.0375 75.6783 43.0422 75.6783 43.047C75.6783 43.0518 75.6783 43.0566 75.6783 43.0614C75.6783 43.0662 75.6783 43.071 75.6783 43.0757C75.6783 43.0805 75.6783 43.0853 75.6783 43.0901C75.6783 43.0949 75.6783 43.0997 75.6783 43.1045C75.6783 43.1092 75.6783 43.114 75.6783 43.1188C75.6783 43.1236 75.6783 43.1284 75.6783 43.1332C75.6783 43.1379 75.6783 43.1427 75.6783 43.1475C75.6783 43.1523 75.6783 43.1571 75.6783 43.1619C75.6783 43.1666 75.6783 43.1714 75.6783 43.1762C75.6783 43.181 75.6783 43.1858 75.6783 43.1906C75.6783 43.1953 75.6783 43.2001 75.6783 43.2049C75.6783 43.2097 75.6783 43.2145 75.6783 43.2193C75.6783 43.224 75.6783 43.2288 75.6783 43.2336C75.6783 43.2384 75.6783 43.2432 75.6783 43.2479C75.6783 43.2527 75.6783 43.2575 75.6783 43.2623C75.6783 43.2671 75.6783 43.2718 75.6783 43.2766C75.6783 43.2814 75.6783 43.2862 75.6783 43.2909C75.6783 43.2957 75.6783 43.3005 75.6783 43.3053C75.6783 43.31 75.6783 43.3148 75.6783 43.3196C75.6783 43.3244 75.6783 43.3291 75.6783 43.3339C75.6783 43.3387 75.6783 43.3435 75.6783 43.3482C75.6783 43.353 75.6783 43.3578 75.6783 43.3625C75.6783 43.3673 75.6783 43.3721 75.6783 43.3768C75.6783 43.3816 75.6783 43.3864 75.6783 43.3911C75.6783 43.3959 75.6783 43.4007 75.6783 43.4054C75.6783 43.4102 75.6783 43.415 75.6783 43.4197C75.6783 43.4245 75.6783 43.4293 75.6783 43.434C75.6783 43.4388 75.6783 43.4435 75.6783 43.4483C75.6783 43.4531 75.6783 43.4578 75.6783 43.4626C75.6783 43.4673 75.6783 43.4721 75.6783 43.4768C75.6783 43.4816 75.6783 43.4864 75.6783 43.4911C75.6783 43.4959 75.6783 43.5006 75.6783 43.5054C75.6783 43.5101 75.6783 43.5149 75.6783 43.5196C75.6783 43.5244 75.6783 43.5291 75.6783 43.5338C75.6783 43.5386 75.6783 43.5433 75.6783 43.5481C75.6783 43.5528 75.6783 43.5576 75.6783 43.5623C75.6783 43.5671 75.6783 43.5718 75.6783 43.5765C75.6783 43.5813 75.6783 43.586 75.6783 43.5907C75.6783 43.5955 75.6783 43.6002 75.6783 43.6049C75.6783 43.6097 75.6783 43.6144 75.6783 43.6191C75.6783 43.6239 75.6783 43.6286 75.6783 43.6333C75.6783 43.6381 75.6783 43.6428 75.6783 43.6475C75.6783 43.6522 75.6783 43.657 75.6783 43.6617C75.6783 43.6664 75.6783 43.6711 75.6783 43.6758C75.6783 43.6805 75.6783 43.6853 75.6783 43.69C75.6783 43.6947 75.6783 43.6994 75.6783 43.7041C75.6783 43.7088 75.6783 43.7135 75.6783 43.7183C75.6783 43.723 75.6783 43.7277 75.6783 43.7324C75.6783 43.7371 75.6783 43.7418 75.6783 43.7465C75.6783 43.7512 75.6783 43.7559 75.6783 43.7606C75.6783 43.7653 75.6783 43.77 75.6783 43.7747C75.6783 43.7794 75.6783 43.7841 75.6783 43.7887C75.6783 43.7934 75.6783 43.7981 75.6783 43.8028C75.6783 43.8075 75.6783 43.8122 75.6783 43.8169C75.6783 43.8216 75.6783 43.8262 75.6783 43.8309C75.6783 43.8356 75.6783 43.8403 75.6783 43.8449C75.6783 43.8496 75.6783 43.8543 75.6783 43.859C75.6783 43.8636 75.6783 43.8683 75.6783 43.873C75.6783 43.8776 75.6783 43.8823 75.6783 43.887C75.6783 43.8916 75.6783 43.8963 75.6783 43.9009C75.6783 43.9056 75.6783 43.9103 75.6783 43.9149C75.6783 43.9196 75.6783 43.9242 75.6783 43.9289C75.6783 43.9335 75.6783 43.9382 75.6783 43.9428C75.6783 43.9474 75.6783 43.9521 75.6783 43.9567C75.6783 43.9614 75.6783 43.966 75.6783 43.9706C75.6783 43.9753 75.6783 43.9799 75.6783 43.9845C75.6783 43.9892 75.6783 43.9938 75.6783 43.9984C75.6783 44.0031 75.6783 44.0077 75.6783 44.0123C75.6783 44.0169 75.6783 44.0215 75.6783 44.0262C75.6783 44.0308 75.6783 44.0354 75.6783 44.04C75.6783 44.0446 75.6783 44.0492 75.6783 44.0538C75.6783 44.0584 75.6783 44.063 75.6783 44.0676C75.6783 44.0722 75.6783 44.0768 75.6783 44.0814C75.6783 44.086 75.6783 44.0906 75.6783 44.0952C75.6783 44.0998 75.6783 44.1044 75.6783 44.109C75.6783 44.1135 75.6783 44.1181 75.6783 44.1227C75.6783 44.1273 75.6783 44.1319 75.6783 44.1364C75.6783 44.141 75.6783 44.1456 75.6783 44.1501C75.6783 44.1547 75.6783 44.1593 75.6783 44.1638C75.6783 44.1684 75.6783 44.173 75.6783 44.1775C75.6783 44.1821 75.6783 44.1866 75.6783 44.1912C75.6783 44.1957 75.6783 44.2003 75.6783 44.2048C75.6783 44.2094 75.6783 44.2139 75.6783 44.2184C75.6783 44.223 75.6783 44.2275 75.6783 44.232C75.6783 44.2366 75.6783 44.2411 75.6783 44.2456C75.6783 44.2502 75.6783 44.2547 75.6783 44.2592C75.6783 44.2637 75.6783 44.2682 75.6783 44.2728C75.6783 44.2773 75.6783 44.2818 75.6783 44.2863C75.6783 44.2908 75.6783 44.2953 75.6783 44.2998C75.6783 44.3043 75.6783 44.3088 75.6783 44.3133C75.6783 44.3178 75.6783 44.3223 75.6783 44.3268C75.6783 44.3312 75.6783 44.3357 75.6783 44.3402C75.6783 44.3447 75.6783 44.3492 75.6783 44.3536C75.6783 44.3581 75.6783 44.3626 75.6783 44.3671C75.6783 44.3715 75.6783 44.376 75.6783 44.3804C75.6783 44.3849 75.6783 44.3894 75.6783 44.3938C75.6783 44.3983 75.6783 44.4027 75.6783 44.4072C75.6783 44.4116 75.6783 44.4161 75.6783 44.4205C75.6783 44.4249 75.6783 44.4294 75.6783 44.4338C75.6783 44.4382 75.6783 44.4427 75.6783 44.4471C75.6783 44.4515 75.6783 44.4559 75.6783 44.4603C75.6783 44.4648 75.6783 44.4692 75.6783 44.4736C75.6783 44.478 75.6783 44.4824 75.6783 44.4868C75.6783 44.4912 75.6783 44.4956 75.6783 44.5C75.6783 44.5044 75.6783 44.5088 75.6783 44.5132C75.6783 44.5176 75.6783 44.5219 75.6783 44.5263C75.6783 44.5307 75.6783 44.5351 75.6783 44.5394C75.6783 44.5438 75.6783 44.5482 75.6783 44.5525C75.6783 44.5569 75.6783 44.5613 75.6783 44.5656C75.6783 44.57 75.6783 44.5743 75.6783 44.5787C75.6783 44.583 75.6783 44.5874 75.6783 44.5917C75.6783 44.5961 75.6783 44.6004 75.6783 44.6047C75.6783 44.609 75.6783 44.6134 75.6783 44.6177C75.6783 44.622 75.6783 44.6263 75.6783 44.6307C75.6783 44.635 75.6783 44.6393 75.6783 44.6436C75.6783 44.6479 75.6783 44.6522 75.6783 44.6565C75.6783 44.6608 75.6783 44.6651 75.6783 44.6694C75.6783 44.6737 75.6783 44.6779 75.6783 44.6822C75.6783 44.6865 75.6783 44.6908 75.6783 44.6951C75.6783 44.6993 75.6783 44.7036 75.6783 44.7079C75.6783 44.7121 75.6783 44.7164 75.6783 44.7206C75.6783 44.7249 75.6783 44.7291 75.6783 44.7334C75.6783 44.7376 75.6783 44.7419 75.6783 44.7461C75.6783 44.7503 75.6783 44.7546 75.6783 44.7588C75.6783 44.763 75.6783 44.7672 75.6783 44.7715C75.6783 44.7757 75.6783 44.7799 75.6783 44.7841C75.6783 44.7883 75.6783 44.7925 75.6783 44.7967C75.6783 44.8009 75.6783 44.8051 75.6783 44.8093C75.6783 44.8135 75.6783 44.8177 75.6783 44.8219C75.6783 44.826 75.6783 44.8302 75.6783 44.8344C75.6783 44.8386 75.6783 44.8427 75.6783 44.8469C75.6783 44.851 75.6783 44.8552 75.6783 44.8594C75.6783 44.8635 75.6783 44.8676 75.6783 44.8718C75.6783 44.8759 75.6783 44.8801 75.6783 44.8842C75.6783 44.8883 75.6783 44.8925 75.6783 44.8966C75.6783 44.9007 75.6783 44.9048 75.6783 44.9089C75.6783 44.913 75.6783 44.9172 75.6783 44.9213C75.6783 44.9254 75.6783 44.9295 75.6783 44.9335C75.6783 44.9376 75.6783 44.9417 75.6783 44.9458C75.6783 44.9499 75.6783 44.954 75.6783 44.958C75.6783 44.9621 75.6783 44.9662 75.6783 44.9702C75.6783 44.9743 75.6783 44.9784 75.6783 44.9824C75.6783 44.9865 75.6783 44.9905 75.6783 44.9945C75.6783 44.9986 75.6783 45.0026 75.6783 45.0066C75.6783 45.0107 75.6783 45.0147 75.6783 45.0187C75.6783 45.0227 75.6783 45.0268 75.6783 45.0308C75.6783 45.0348 75.6783 45.0388 75.6783 45.0428C75.6783 45.0468 75.6783 45.0508 75.6783 45.0547C75.6783 45.0587 75.6783 45.0627 75.6783 45.0667C75.6783 45.0707 75.6783 45.0746 75.6783 45.0786C75.6783 45.0826 75.6783 45.0865 75.6783 45.0905C75.6783 45.0944 75.6783 45.0984 75.6783 45.1023C75.6783 45.1063 75.6783 45.1102 75.6783 45.1141C75.6783 45.1181 75.6783 45.122 75.6783 45.1259C75.6783 45.1298 75.6783 45.1337 75.6783 45.1377C75.6783 45.1416 75.6783 45.1455 75.6783 45.1494C75.6783 45.1533 75.6783 45.1572 75.6783 45.161C75.6783 45.1649 75.6783 45.1688 75.6783 45.1727C75.6783 45.1766 75.6783 45.1804 75.6783 45.1843C75.6783 45.1881 75.6783 45.192 75.6783 45.1959C75.6783 45.1997 75.6783 45.2035 75.6783 45.2074C75.6783 45.2112 75.6783 45.2151 75.6783 45.2189C75.6783 45.2227 75.6783 45.2265 75.6783 45.2303C75.6783 45.2342 75.6783 45.238 75.6783 45.2418C75.6783 45.2456 75.6783 45.2494 75.6783 45.2532C75.6783 45.257 75.6783 45.2607 75.6783 45.2645C75.6783 45.2683 75.6783 45.2721 75.6783 45.2758C75.6783 45.2796 75.6783 45.2834 75.6783 45.2871C75.6783 45.2909 75.6783 45.2946 75.6783 45.2984C75.6783 45.3021 75.6783 45.3058 75.6783 45.3096C75.6783 45.3133 75.6783 45.317 75.6783 45.3207C75.6783 45.3244 75.6783 45.3281 75.6783 45.3319C75.6783 45.3356 75.6783 45.3393 75.6783 45.3429C75.6783 45.3466 75.6783 45.3503 75.6783 45.354C75.6783 45.3577 75.6783 45.3613 75.6783 45.365C75.6783 45.3687 75.6783 45.3723 75.6783 45.376C75.6783 45.3796 75.6783 45.3833 75.6783 45.3869C75.6783 45.3906 75.6783 45.3942 75.6783 45.3978C75.6783 45.4014 75.6783 45.4051 75.6783 45.4087C75.6783 45.4123 75.6783 45.4159 75.6783 45.4195C75.6783 45.4231 75.6783 45.4267 75.6783 45.4303C75.6783 45.4339 75.6783 45.4374 75.6783 45.441C75.6783 45.4446 75.6783 45.4482 75.6783 45.4517C75.6783 45.4553 75.6783 45.4588 75.6783 45.4624C75.6783 45.4659 75.6783 45.4695 75.6783 45.473C75.6783 45.4765 75.6783 45.48 75.6783 45.4836C75.6783 45.4871 75.6783 45.4906 75.6783 45.4941C75.6783 45.4976 75.6783 45.5011 75.6783 45.5046C75.6783 45.5081 75.6783 45.5116 75.6783 45.515C75.6783 45.5185 75.6783 45.522 75.6783 45.5255C75.6783 45.5289 75.6783 45.5324 75.6783 45.5358C75.6783 45.5393 75.6783 45.5427 75.6783 45.5461C75.6783 45.5496 75.6783 45.553 75.6783 45.5564C75.6783 45.5598 75.6783 45.5633 75.6783 45.5667C75.6783 45.5701 75.6783 45.5735 75.6783 45.5769C75.6783 45.5803 75.6783 45.5836 75.6783 45.587C75.6783 45.5904 75.6783 45.5938 75.6783 45.5971C75.6783 45.6005 75.6783 45.6038 75.6783 45.6072C75.6783 45.6105 75.6783 45.6139 75.6783 45.6172C75.6783 45.6206 75.6783 45.6239 75.6783 45.6272C75.6783 45.6305 75.6783 45.6338 75.6783 45.6371C75.6783 45.6404 75.6783 45.6437 75.6783 45.647C75.6783 45.6503 75.6783 45.6536 75.6783 45.6569C75.6783 45.6601 75.6783 45.6634 75.6783 45.6667C75.6783 45.6699 75.6783 45.6732 75.6783 45.6764C75.6783 45.6797 75.6783 45.6829 75.6783 45.6861C75.6783 45.6894 75.6783 45.6926 75.6783 45.6958C75.6783 45.699 75.6783 45.7022 75.6783 45.7054C75.6783 45.7086 75.6783 45.7118 75.6783 45.715C75.6783 45.7182 75.6783 45.7213 75.6783 45.7245C75.6783 45.7277 75.6783 45.7308 75.6783 45.734C75.6783 45.7371 75.6783 45.7403 75.6783 45.7434C75.6783 45.7466 75.6783 45.7497 75.6783 45.7528C75.6783 45.7559 75.6783 45.759 75.6783 45.7621C75.6783 45.7652 75.6783 45.7683 75.6783 45.7714C75.6783 45.7745 75.6783 45.7776 75.6783 45.7807C75.6783 45.7837 75.6783 45.7868 75.6783 45.7899C75.6783 45.7929 75.6783 45.796 75.6783 45.799C75.6783 45.8021 75.6783 45.8051 75.6783 45.8081C75.6783 45.8111 75.6783 45.8141 75.6783 45.8172C75.6783 45.8202 75.6783 45.8232 75.6783 45.8262C75.6783 45.8291 75.6783 45.8321 75.6783 45.8351C75.6783 45.8381 75.6783 45.8411 75.6783 45.844C75.6783 45.847 75.6783 45.8499 75.6783 45.8529C75.6783 45.8558 75.6783 45.8587 75.6783 45.8617C75.6783 45.8646 75.6783 45.8675 75.6783 45.8704C75.6783 45.8733 75.6783 45.8762 75.6783 45.8791C75.6783 45.882 75.6783 45.8849 75.6783 45.8878C75.6783 45.8906 75.6783 45.8935 75.6783 45.8964C75.6783 45.8992 75.6783 45.9021 75.6783 45.9049C75.6783 45.9078 75.6783 45.9106 75.6783 45.9134C75.6783 45.9163 75.6783 45.9191 75.6783 45.9219C75.6783 45.9247 75.6783 45.9275 75.6783 45.9303C75.6783 45.9331 75.6783 45.9358 75.6783 45.9386C75.6783 45.9414 75.6783 45.9442 75.6783 45.9469C75.6783 45.9497 75.6783 45.9524 75.6783 45.9552C75.6783 45.9579 75.6783 45.9606 75.6783 45.9633C75.6783 45.9661 75.6783 45.9688 75.6783 45.9715C75.6783 45.9742 75.6783 45.9769 75.6783 45.9796C75.6783 45.9822 75.6783 45.9849 75.6783 45.9876C75.6783 45.9903 75.6783 45.9929 75.6783 45.9956C75.6783 45.9982 75.6783 46.0009 75.6783 46.0035C75.6783 46.0061 75.6783 46.0087 75.6783 46.0114C75.6783 46.014 75.6783 46.0166 75.6783 46.0192C75.6783 46.0218 75.6783 46.0244 75.6783 46.0269C75.6783 46.0295 75.6783 46.0321 75.6783 46.0346C75.6783 46.0372 75.6783 46.0398 75.6783 46.0423C75.6783 46.0448 75.6783 46.0474 75.6783 46.0499C75.6783 46.0524 75.6783 46.0549 75.6783 46.0574C75.6783 46.0599 75.6783 46.0624 75.6783 46.0649C75.6783 46.0674 75.6783 46.0699 75.6783 46.0724C75.6783 46.0748 75.6783 46.0773 75.6783 46.0797C75.6783 46.0822 75.6783 46.0846 75.6783 46.0871C75.6783 46.0895 75.6783 46.0919 75.6783 46.0943C75.6783 46.0967 75.6783 46.0991 75.6783 46.1015C75.6783 46.1039 75.6783 46.1063 75.6783 46.1087C75.6783 46.1111 75.6783 46.1134 75.6783 46.1158C75.6783 46.1181 75.6783 46.1205 75.6783 46.1228C75.6783 46.1251 75.6783 46.1275 75.6783 46.1298C75.6783 46.1321 75.6783 46.1344 75.6783 46.1367C75.6783 46.139 75.6783 46.1413 75.6783 46.1436C75.6783 46.1459 75.6783 46.1481 75.6783 46.1504C75.6783 46.1526 75.6783 46.1549 75.6783 46.1571C75.6783 46.1594 75.6783 46.1616 75.6783 46.1638C75.6783 46.166 75.6783 46.1682 75.6783 46.1705C75.6783 46.1726 75.6783 46.1748 75.6783 46.177C75.6783 46.1792 75.6783 46.1814 75.6783 46.1835C75.6783 46.1857 75.6783 46.1878 75.6783 46.19C75.6783 46.1921 75.6783 46.1943 75.6783 46.1964C75.6783 46.1985 75.6783 46.2006 75.6783 46.2027C75.6783 46.2048 75.6783 46.2069 75.6783 46.209C75.6783 46.2111 75.6783 46.2131 75.6783 46.2152C75.6783 46.2173 75.6783 46.2193 75.6783 46.2214C75.6783 46.2234 75.6783 46.2254 75.6783 46.2275C75.6783 46.2295 75.6783 46.2315 75.6783 46.2335C75.6783 46.2355 75.6783 46.2375 75.6783 46.2395C75.6783 46.2414 75.6783 46.2434 75.6783 46.2454C75.6783 46.2473 75.6783 46.2493 75.6783 46.2512C75.6783 46.2532 75.6783 46.2551 75.6783 46.257C75.6783 46.2589 75.6783 46.2608 75.6783 46.2627C75.6783 46.2646 75.6783 46.2665 75.6783 46.2684C75.6783 46.2703 75.6783 46.2721 75.6783 46.274C75.6783 46.2758 75.6783 46.2777 75.6783 46.2795C75.6783 46.2814 75.6783 46.2832 75.6783 46.285C75.6783 46.2868 75.6783 46.2886 75.6783 46.2904C75.6783 46.2922 75.6783 46.294 75.6783 46.2958C75.6783 46.2975 75.6783 46.2993 75.6783 46.301C75.6783 46.3028 75.6783 46.3045 75.6783 46.3063C75.6783 46.308 75.6783 46.3097 75.6783 46.3114C75.6783 46.3131 75.6783 46.3148 75.6783 46.3165C75.6783 46.3182 75.6783 46.3199 75.6783 46.3215C75.6783 46.3232 75.6783 46.3249 75.6783 46.3265C75.6783 46.3281 75.6783 46.3298 75.6783 46.3314C75.6783 46.333 75.6783 46.3346 75.6783 46.3362C75.6783 46.3378 75.6783 46.3394 75.6783 46.341C75.6783 46.3426 75.6783 46.3441 75.6783 46.3457C75.6783 46.3473 75.6783 46.3488 75.6783 46.3503C75.6783 46.3519 75.6783 46.3534 75.6783 46.3549C75.6783 46.3564 75.6783 46.3579 75.6783 46.3594C75.6783 46.3609 75.6783 46.3624 75.6783 46.3639C75.6783 46.3653 75.6783 46.3668 75.6783 46.3682C75.6783 46.3697 75.6783 46.3711 75.6783 46.3725C75.6783 46.3739 75.6783 46.3754 75.6783 46.3768C75.6783 46.3782 75.6783 46.3796 75.6783 46.3809C75.6783 46.3823 75.6783 46.3837 75.6783 46.385C75.6783 46.3864 75.6783 46.3877 75.6783 46.3891C75.6783 46.3904 75.6783 46.3917 75.6783 46.393C75.6783 46.3943 75.6783 46.3956 75.6783 46.3969C75.6783 46.3982 75.6783 46.3995 75.6783 46.4008C75.6783 46.402 75.6783 46.4033 75.6783 46.4045C75.6783 46.4058 75.6783 46.407 75.6783 46.4082C75.6783 46.4094 75.6783 46.4106 75.6783 46.4118C75.6783 46.413 75.6783 46.4142 75.6783 46.4154C75.6783 46.4166 75.6783 46.4177 75.6783 46.4189C75.6783 46.42 75.6783 46.4212 75.6783 46.4223C75.6783 46.4234 75.6783 46.4245 75.6783 46.4256C75.6783 46.4267 75.6783 46.4278 75.6783 46.4289C75.6783 46.43 75.6783 46.431 75.6783 46.4321C75.6783 46.4332 75.6783 46.4342 75.6783 46.4352C75.6783 46.4363 75.6783 46.4373 75.6783 46.4383C75.6783 46.4393 75.6783 46.4403 75.6783 46.4413C75.6783 46.4423 75.6783 46.4432 75.6783 46.4442C75.6783 46.4452 75.6783 46.4461 75.6783 46.4471C75.6783 46.448 75.6783 46.4489 75.6783 46.4498C75.6783 46.4507 75.6783 46.4516 75.6783 46.4525C75.6783 46.4534 75.6783 46.4543 75.6783 46.4552C75.6783 46.456 75.6783 46.4569 75.6783 46.4577C75.6783 46.4586 75.6783 46.4594 75.6783 46.4602C75.6783 46.461 75.6783 46.4618 75.6783 46.4626C75.6783 46.4634 75.6783 46.4642 75.6783 46.465C75.6783 46.4657 75.6783 46.4665 75.6783 46.4672C75.6783 46.468 75.6783 46.4687 75.6783 46.4694C75.6783 46.4701 75.6783 46.4708 75.6783 46.4715C75.6783 46.4722 75.6783 46.4729 75.6783 46.4736C75.6783 46.4742 75.6783 46.4749 75.6783 46.4755C75.6783 46.4762 75.6783 46.4768 75.6783 46.4774C75.6783 46.4781 75.6783 46.4787 75.6783 46.4793C75.6783 46.4799 75.6783 46.4804 75.6783 46.481C75.6783 46.4816 75.6783 46.4821 75.6783 46.4827C75.6783 46.4832 75.6783 46.4838 75.6783 46.4843C75.6783 46.4848 75.6783 46.4853 75.6783 46.4858C75.6783 46.4863 75.6783 46.4868 75.6783 46.4872C75.6783 46.4877 75.6783 46.4882 75.6783 46.4886C75.6783 46.489 75.6783 46.4895 75.6783 46.4899C75.6783 46.4903 75.6783 46.4907 75.6783 46.4911C75.6783 46.4915 75.6783 46.4919 75.6783 46.4923C75.6783 46.4926 75.6783 46.493 75.6783 46.4933C75.6783 46.4937 75.6783 46.494 75.6783 46.4943C75.6783 46.4946 75.6783 46.4949 75.6783 46.4952C75.6783 46.4955 75.6783 46.4958 75.6783 46.496C75.6783 46.4963 75.6783 46.4965 75.6783 46.4968C75.6783 46.497 75.6783 46.4972 75.6783 46.4975C75.6783 46.4977 75.6783 46.4979 75.6783 46.4981C75.6783 46.4982 75.6783 46.4984 75.6783 46.4986C75.6783 46.4987 75.6783 46.4989 75.6783 46.499C75.6783 46.4991 75.6783 46.4993 75.6783 46.4994C75.6783 46.4995 75.6783 46.4996 75.6783 46.4996C75.6783 46.4997 75.6783 46.4998 75.6783 46.4998C75.6783 46.4999 75.6783 46.4999 75.6783 46.5C75.6783 46.5 75.6783 46.5 76.6783 46.5C77.6783 46.5 77.6783 46.5 77.6783 46.5C77.6783 46.4999 77.6783 46.4999 77.6783 46.4998C77.6783 46.4998 77.6783 46.4997 77.6783 46.4996C77.6783 46.4996 77.6783 46.4995 77.6783 46.4994C77.6783 46.4993 77.6783 46.4991 77.6783 46.499C77.6783 46.4989 77.6783 46.4987 77.6783 46.4986C77.6783 46.4984 77.6783 46.4982 77.6783 46.4981C77.6783 46.4979 77.6783 46.4977 77.6783 46.4975C77.6783 46.4972 77.6783 46.497 77.6783 46.4968C77.6783 46.4965 77.6783 46.4963 77.6783 46.496C77.6783 46.4958 77.6783 46.4955 77.6783 46.4952C77.6783 46.4949 77.6783 46.4946 77.6783 46.4943C77.6783 46.494 77.6783 46.4937 77.6783 46.4933C77.6783 46.493 77.6783 46.4926 77.6783 46.4923C77.6783 46.4919 77.6783 46.4915 77.6783 46.4911C77.6783 46.4907 77.6783 46.4903 77.6783 46.4899C77.6783 46.4895 77.6783 46.489 77.6783 46.4886C77.6783 46.4882 77.6783 46.4877 77.6783 46.4872C77.6783 46.4868 77.6783 46.4863 77.6783 46.4858C77.6783 46.4853 77.6783 46.4848 77.6783 46.4843C77.6783 46.4838 77.6783 46.4832 77.6783 46.4827C77.6783 46.4821 77.6783 46.4816 77.6783 46.481C77.6783 46.4804 77.6783 46.4799 77.6783 46.4793C77.6783 46.4787 77.6783 46.4781 77.6783 46.4774C77.6783 46.4768 77.6783 46.4762 77.6783 46.4755C77.6783 46.4749 77.6783 46.4742 77.6783 46.4736C77.6783 46.4729 77.6783 46.4722 77.6783 46.4715C77.6783 46.4708 77.6783 46.4701 77.6783 46.4694C77.6783 46.4687 77.6783 46.468 77.6783 46.4672C77.6783 46.4665 77.6783 46.4657 77.6783 46.465C77.6783 46.4642 77.6783 46.4634 77.6783 46.4626C77.6783 46.4618 77.6783 46.461 77.6783 46.4602C77.6783 46.4594 77.6783 46.4586 77.6783 46.4577C77.6783 46.4569 77.6783 46.456 77.6783 46.4552C77.6783 46.4543 77.6783 46.4534 77.6783 46.4525C77.6783 46.4516 77.6783 46.4507 77.6783 46.4498C77.6783 46.4489 77.6783 46.448 77.6783 46.4471C77.6783 46.4461 77.6783 46.4452 77.6783 46.4442C77.6783 46.4432 77.6783 46.4423 77.6783 46.4413C77.6783 46.4403 77.6783 46.4393 77.6783 46.4383C77.6783 46.4373 77.6783 46.4363 77.6783 46.4352C77.6783 46.4342 77.6783 46.4332 77.6783 46.4321C77.6783 46.431 77.6783 46.43 77.6783 46.4289C77.6783 46.4278 77.6783 46.4267 77.6783 46.4256C77.6783 46.4245 77.6783 46.4234 77.6783 46.4223C77.6783 46.4212 77.6783 46.42 77.6783 46.4189C77.6783 46.4177 77.6783 46.4166 77.6783 46.4154C77.6783 46.4142 77.6783 46.413 77.6783 46.4118C77.6783 46.4106 77.6783 46.4094 77.6783 46.4082C77.6783 46.407 77.6783 46.4058 77.6783 46.4045C77.6783 46.4033 77.6783 46.402 77.6783 46.4008C77.6783 46.3995 77.6783 46.3982 77.6783 46.3969C77.6783 46.3956 77.6783 46.3943 77.6783 46.393C77.6783 46.3917 77.6783 46.3904 77.6783 46.3891C77.6783 46.3877 77.6783 46.3864 77.6783 46.385C77.6783 46.3837 77.6783 46.3823 77.6783 46.3809C77.6783 46.3796 77.6783 46.3782 77.6783 46.3768C77.6783 46.3754 77.6783 46.3739 77.6783 46.3725C77.6783 46.3711 77.6783 46.3697 77.6783 46.3682C77.6783 46.3668 77.6783 46.3653 77.6783 46.3639C77.6783 46.3624 77.6783 46.3609 77.6783 46.3594C77.6783 46.3579 77.6783 46.3564 77.6783 46.3549C77.6783 46.3534 77.6783 46.3519 77.6783 46.3503C77.6783 46.3488 77.6783 46.3473 77.6783 46.3457C77.6783 46.3441 77.6783 46.3426 77.6783 46.341C77.6783 46.3394 77.6783 46.3378 77.6783 46.3362C77.6783 46.3346 77.6783 46.333 77.6783 46.3314C77.6783 46.3298 77.6783 46.3281 77.6783 46.3265C77.6783 46.3249 77.6783 46.3232 77.6783 46.3215C77.6783 46.3199 77.6783 46.3182 77.6783 46.3165C77.6783 46.3148 77.6783 46.3131 77.6783 46.3114C77.6783 46.3097 77.6783 46.308 77.6783 46.3063C77.6783 46.3045 77.6783 46.3028 77.6783 46.301C77.6783 46.2993 77.6783 46.2975 77.6783 46.2958C77.6783 46.294 77.6783 46.2922 77.6783 46.2904C77.6783 46.2886 77.6783 46.2868 77.6783 46.285C77.6783 46.2832 77.6783 46.2814 77.6783 46.2795C77.6783 46.2777 77.6783 46.2758 77.6783 46.274C77.6783 46.2721 77.6783 46.2703 77.6783 46.2684C77.6783 46.2665 77.6783 46.2646 77.6783 46.2627C77.6783 46.2608 77.6783 46.2589 77.6783 46.257C77.6783 46.2551 77.6783 46.2532 77.6783 46.2512C77.6783 46.2493 77.6783 46.2473 77.6783 46.2454C77.6783 46.2434 77.6783 46.2414 77.6783 46.2395C77.6783 46.2375 77.6783 46.2355 77.6783 46.2335C77.6783 46.2315 77.6783 46.2295 77.6783 46.2275C77.6783 46.2254 77.6783 46.2234 77.6783 46.2214C77.6783 46.2193 77.6783 46.2173 77.6783 46.2152C77.6783 46.2131 77.6783 46.2111 77.6783 46.209C77.6783 46.2069 77.6783 46.2048 77.6783 46.2027C77.6783 46.2006 77.6783 46.1985 77.6783 46.1964C77.6783 46.1943 77.6783 46.1921 77.6783 46.19C77.6783 46.1878 77.6783 46.1857 77.6783 46.1835C77.6783 46.1814 77.6783 46.1792 77.6783 46.177C77.6783 46.1748 77.6783 46.1726 77.6783 46.1705C77.6783 46.1682 77.6783 46.166 77.6783 46.1638C77.6783 46.1616 77.6783 46.1594 77.6783 46.1571C77.6783 46.1549 77.6783 46.1526 77.6783 46.1504C77.6783 46.1481 77.6783 46.1459 77.6783 46.1436C77.6783 46.1413 77.6783 46.139 77.6783 46.1367C77.6783 46.1344 77.6783 46.1321 77.6783 46.1298C77.6783 46.1275 77.6783 46.1251 77.6783 46.1228C77.6783 46.1205 77.6783 46.1181 77.6783 46.1158C77.6783 46.1134 77.6783 46.1111 77.6783 46.1087C77.6783 46.1063 77.6783 46.1039 77.6783 46.1015C77.6783 46.0991 77.6783 46.0967 77.6783 46.0943C77.6783 46.0919 77.6783 46.0895 77.6783 46.0871C77.6783 46.0846 77.6783 46.0822 77.6783 46.0797C77.6783 46.0773 77.6783 46.0748 77.6783 46.0724C77.6783 46.0699 77.6783 46.0674 77.6783 46.0649C77.6783 46.0624 77.6783 46.0599 77.6783 46.0574C77.6783 46.0549 77.6783 46.0524 77.6783 46.0499C77.6783 46.0474 77.6783 46.0448 77.6783 46.0423C77.6783 46.0398 77.6783 46.0372 77.6783 46.0346C77.6783 46.0321 77.6783 46.0295 77.6783 46.0269C77.6783 46.0244 77.6783 46.0218 77.6783 46.0192C77.6783 46.0166 77.6783 46.014 77.6783 46.0114C77.6783 46.0087 77.6783 46.0061 77.6783 46.0035C77.6783 46.0009 77.6783 45.9982 77.6783 45.9956C77.6783 45.9929 77.6783 45.9903 77.6783 45.9876C77.6783 45.9849 77.6783 45.9822 77.6783 45.9796C77.6783 45.9769 77.6783 45.9742 77.6783 45.9715C77.6783 45.9688 77.6783 45.9661 77.6783 45.9633C77.6783 45.9606 77.6783 45.9579 77.6783 45.9552C77.6783 45.9524 77.6783 45.9497 77.6783 45.9469C77.6783 45.9442 77.6783 45.9414 77.6783 45.9386C77.6783 45.9358 77.6783 45.9331 77.6783 45.9303C77.6783 45.9275 77.6783 45.9247 77.6783 45.9219C77.6783 45.9191 77.6783 45.9163 77.6783 45.9134C77.6783 45.9106 77.6783 45.9078 77.6783 45.9049C77.6783 45.9021 77.6783 45.8992 77.6783 45.8964C77.6783 45.8935 77.6783 45.8906 77.6783 45.8878C77.6783 45.8849 77.6783 45.882 77.6783 45.8791C77.6783 45.8762 77.6783 45.8733 77.6783 45.8704C77.6783 45.8675 77.6783 45.8646 77.6783 45.8617C77.6783 45.8587 77.6783 45.8558 77.6783 45.8529C77.6783 45.8499 77.6783 45.847 77.6783 45.844C77.6783 45.8411 77.6783 45.8381 77.6783 45.8351C77.6783 45.8321 77.6783 45.8291 77.6783 45.8262C77.6783 45.8232 77.6783 45.8202 77.6783 45.8172C77.6783 45.8141 77.6783 45.8111 77.6783 45.8081C77.6783 45.8051 77.6783 45.8021 77.6783 45.799C77.6783 45.796 77.6783 45.7929 77.6783 45.7899C77.6783 45.7868 77.6783 45.7837 77.6783 45.7807C77.6783 45.7776 77.6783 45.7745 77.6783 45.7714C77.6783 45.7683 77.6783 45.7652 77.6783 45.7621C77.6783 45.759 77.6783 45.7559 77.6783 45.7528C77.6783 45.7497 77.6783 45.7466 77.6783 45.7434C77.6783 45.7403 77.6783 45.7371 77.6783 45.734C77.6783 45.7308 77.6783 45.7277 77.6783 45.7245C77.6783 45.7213 77.6783 45.7182 77.6783 45.715C77.6783 45.7118 77.6783 45.7086 77.6783 45.7054C77.6783 45.7022 77.6783 45.699 77.6783 45.6958C77.6783 45.6926 77.6783 45.6894 77.6783 45.6861C77.6783 45.6829 77.6783 45.6797 77.6783 45.6764C77.6783 45.6732 77.6783 45.6699 77.6783 45.6667C77.6783 45.6634 77.6783 45.6601 77.6783 45.6569C77.6783 45.6536 77.6783 45.6503 77.6783 45.647C77.6783 45.6437 77.6783 45.6404 77.6783 45.6371C77.6783 45.6338 77.6783 45.6305 77.6783 45.6272C77.6783 45.6239 77.6783 45.6206 77.6783 45.6172C77.6783 45.6139 77.6783 45.6105 77.6783 45.6072C77.6783 45.6038 77.6783 45.6005 77.6783 45.5971C77.6783 45.5938 77.6783 45.5904 77.6783 45.587C77.6783 45.5836 77.6783 45.5803 77.6783 45.5769C77.6783 45.5735 77.6783 45.5701 77.6783 45.5667C77.6783 45.5633 77.6783 45.5598 77.6783 45.5564C77.6783 45.553 77.6783 45.5496 77.6783 45.5461C77.6783 45.5427 77.6783 45.5393 77.6783 45.5358C77.6783 45.5324 77.6783 45.5289 77.6783 45.5255C77.6783 45.522 77.6783 45.5185 77.6783 45.515C77.6783 45.5116 77.6783 45.5081 77.6783 45.5046C77.6783 45.5011 77.6783 45.4976 77.6783 45.4941C77.6783 45.4906 77.6783 45.4871 77.6783 45.4836C77.6783 45.48 77.6783 45.4765 77.6783 45.473C77.6783 45.4695 77.6783 45.4659 77.6783 45.4624C77.6783 45.4588 77.6783 45.4553 77.6783 45.4517C77.6783 45.4482 77.6783 45.4446 77.6783 45.441C77.6783 45.4374 77.6783 45.4339 77.6783 45.4303C77.6783 45.4267 77.6783 45.4231 77.6783 45.4195C77.6783 45.4159 77.6783 45.4123 77.6783 45.4087C77.6783 45.4051 77.6783 45.4014 77.6783 45.3978C77.6783 45.3942 77.6783 45.3906 77.6783 45.3869C77.6783 45.3833 77.6783 45.3796 77.6783 45.376C77.6783 45.3723 77.6783 45.3687 77.6783 45.365C77.6783 45.3613 77.6783 45.3577 77.6783 45.354C77.6783 45.3503 77.6783 45.3466 77.6783 45.3429C77.6783 45.3393 77.6783 45.3356 77.6783 45.3319C77.6783 45.3281 77.6783 45.3244 77.6783 45.3207C77.6783 45.317 77.6783 45.3133 77.6783 45.3096C77.6783 45.3058 77.6783 45.3021 77.6783 45.2984C77.6783 45.2946 77.6783 45.2909 77.6783 45.2871C77.6783 45.2834 77.6783 45.2796 77.6783 45.2758C77.6783 45.2721 77.6783 45.2683 77.6783 45.2645C77.6783 45.2607 77.6783 45.257 77.6783 45.2532C77.6783 45.2494 77.6783 45.2456 77.6783 45.2418C77.6783 45.238 77.6783 45.2342 77.6783 45.2303C77.6783 45.2265 77.6783 45.2227 77.6783 45.2189C77.6783 45.2151 77.6783 45.2112 77.6783 45.2074C77.6783 45.2035 77.6783 45.1997 77.6783 45.1959C77.6783 45.192 77.6783 45.1881 77.6783 45.1843C77.6783 45.1804 77.6783 45.1766 77.6783 45.1727C77.6783 45.1688 77.6783 45.1649 77.6783 45.161C77.6783 45.1572 77.6783 45.1533 77.6783 45.1494C77.6783 45.1455 77.6783 45.1416 77.6783 45.1377C77.6783 45.1337 77.6783 45.1298 77.6783 45.1259C77.6783 45.122 77.6783 45.1181 77.6783 45.1141C77.6783 45.1102 77.6783 45.1063 77.6783 45.1023C77.6783 45.0984 77.6783 45.0944 77.6783 45.0905C77.6783 45.0865 77.6783 45.0826 77.6783 45.0786C77.6783 45.0746 77.6783 45.0707 77.6783 45.0667C77.6783 45.0627 77.6783 45.0587 77.6783 45.0547C77.6783 45.0508 77.6783 45.0468 77.6783 45.0428C77.6783 45.0388 77.6783 45.0348 77.6783 45.0308C77.6783 45.0268 77.6783 45.0227 77.6783 45.0187C77.6783 45.0147 77.6783 45.0107 77.6783 45.0066C77.6783 45.0026 77.6783 44.9986 77.6783 44.9945C77.6783 44.9905 77.6783 44.9865 77.6783 44.9824C77.6783 44.9784 77.6783 44.9743 77.6783 44.9702C77.6783 44.9662 77.6783 44.9621 77.6783 44.958C77.6783 44.954 77.6783 44.9499 77.6783 44.9458C77.6783 44.9417 77.6783 44.9376 77.6783 44.9335C77.6783 44.9295 77.6783 44.9254 77.6783 44.9213C77.6783 44.9172 77.6783 44.913 77.6783 44.9089C77.6783 44.9048 77.6783 44.9007 77.6783 44.8966C77.6783 44.8925 77.6783 44.8883 77.6783 44.8842C77.6783 44.8801 77.6783 44.8759 77.6783 44.8718C77.6783 44.8676 77.6783 44.8635 77.6783 44.8594C77.6783 44.8552 77.6783 44.851 77.6783 44.8469C77.6783 44.8427 77.6783 44.8386 77.6783 44.8344C77.6783 44.8302 77.6783 44.826 77.6783 44.8219C77.6783 44.8177 77.6783 44.8135 77.6783 44.8093C77.6783 44.8051 77.6783 44.8009 77.6783 44.7967C77.6783 44.7925 77.6783 44.7883 77.6783 44.7841C77.6783 44.7799 77.6783 44.7757 77.6783 44.7715C77.6783 44.7672 77.6783 44.763 77.6783 44.7588C77.6783 44.7546 77.6783 44.7503 77.6783 44.7461C77.6783 44.7419 77.6783 44.7376 77.6783 44.7334C77.6783 44.7291 77.6783 44.7249 77.6783 44.7206C77.6783 44.7164 77.6783 44.7121 77.6783 44.7079C77.6783 44.7036 77.6783 44.6993 77.6783 44.6951C77.6783 44.6908 77.6783 44.6865 77.6783 44.6822C77.6783 44.6779 77.6783 44.6737 77.6783 44.6694C77.6783 44.6651 77.6783 44.6608 77.6783 44.6565C77.6783 44.6522 77.6783 44.6479 77.6783 44.6436C77.6783 44.6393 77.6783 44.635 77.6783 44.6307C77.6783 44.6263 77.6783 44.622 77.6783 44.6177C77.6783 44.6134 77.6783 44.609 77.6783 44.6047C77.6783 44.6004 77.6783 44.5961 77.6783 44.5917C77.6783 44.5874 77.6783 44.583 77.6783 44.5787C77.6783 44.5743 77.6783 44.57 77.6783 44.5656C77.6783 44.5613 77.6783 44.5569 77.6783 44.5525C77.6783 44.5482 77.6783 44.5438 77.6783 44.5394C77.6783 44.5351 77.6783 44.5307 77.6783 44.5263C77.6783 44.5219 77.6783 44.5176 77.6783 44.5132C77.6783 44.5088 77.6783 44.5044 77.6783 44.5C77.6783 44.4956 77.6783 44.4912 77.6783 44.4868C77.6783 44.4824 77.6783 44.478 77.6783 44.4736C77.6783 44.4692 77.6783 44.4648 77.6783 44.4603C77.6783 44.4559 77.6783 44.4515 77.6783 44.4471C77.6783 44.4427 77.6783 44.4382 77.6783 44.4338C77.6783 44.4294 77.6783 44.4249 77.6783 44.4205C77.6783 44.4161 77.6783 44.4116 77.6783 44.4072C77.6783 44.4027 77.6783 44.3983 77.6783 44.3938C77.6783 44.3894 77.6783 44.3849 77.6783 44.3804C77.6783 44.376 77.6783 44.3715 77.6783 44.3671C77.6783 44.3626 77.6783 44.3581 77.6783 44.3536C77.6783 44.3492 77.6783 44.3447 77.6783 44.3402C77.6783 44.3357 77.6783 44.3312 77.6783 44.3268C77.6783 44.3223 77.6783 44.3178 77.6783 44.3133C77.6783 44.3088 77.6783 44.3043 77.6783 44.2998C77.6783 44.2953 77.6783 44.2908 77.6783 44.2863C77.6783 44.2818 77.6783 44.2773 77.6783 44.2728C77.6783 44.2682 77.6783 44.2637 77.6783 44.2592C77.6783 44.2547 77.6783 44.2502 77.6783 44.2456C77.6783 44.2411 77.6783 44.2366 77.6783 44.232C77.6783 44.2275 77.6783 44.223 77.6783 44.2184C77.6783 44.2139 77.6783 44.2094 77.6783 44.2048C77.6783 44.2003 77.6783 44.1957 77.6783 44.1912C77.6783 44.1866 77.6783 44.1821 77.6783 44.1775C77.6783 44.173 77.6783 44.1684 77.6783 44.1638C77.6783 44.1593 77.6783 44.1547 77.6783 44.1501C77.6783 44.1456 77.6783 44.141 77.6783 44.1364C77.6783 44.1319 77.6783 44.1273 77.6783 44.1227C77.6783 44.1181 77.6783 44.1135 77.6783 44.109C77.6783 44.1044 77.6783 44.0998 77.6783 44.0952C77.6783 44.0906 77.6783 44.086 77.6783 44.0814C77.6783 44.0768 77.6783 44.0722 77.6783 44.0676C77.6783 44.063 77.6783 44.0584 77.6783 44.0538C77.6783 44.0492 77.6783 44.0446 77.6783 44.04C77.6783 44.0354 77.6783 44.0308 77.6783 44.0262C77.6783 44.0215 77.6783 44.0169 77.6783 44.0123C77.6783 44.0077 77.6783 44.0031 77.6783 43.9984C77.6783 43.9938 77.6783 43.9892 77.6783 43.9845C77.6783 43.9799 77.6783 43.9753 77.6783 43.9706C77.6783 43.966 77.6783 43.9614 77.6783 43.9567C77.6783 43.9521 77.6783 43.9474 77.6783 43.9428C77.6783 43.9382 77.6783 43.9335 77.6783 43.9289C77.6783 43.9242 77.6783 43.9196 77.6783 43.9149C77.6783 43.9103 77.6783 43.9056 77.6783 43.9009C77.6783 43.8963 77.6783 43.8916 77.6783 43.887C77.6783 43.8823 77.6783 43.8776 77.6783 43.873C77.6783 43.8683 77.6783 43.8636 77.6783 43.859C77.6783 43.8543 77.6783 43.8496 77.6783 43.8449C77.6783 43.8403 77.6783 43.8356 77.6783 43.8309C77.6783 43.8262 77.6783 43.8216 77.6783 43.8169C77.6783 43.8122 77.6783 43.8075 77.6783 43.8028C77.6783 43.7981 77.6783 43.7934 77.6783 43.7887C77.6783 43.7841 77.6783 43.7794 77.6783 43.7747C77.6783 43.77 77.6783 43.7653 77.6783 43.7606C77.6783 43.7559 77.6783 43.7512 77.6783 43.7465C77.6783 43.7418 77.6783 43.7371 77.6783 43.7324C77.6783 43.7277 77.6783 43.723 77.6783 43.7183C77.6783 43.7135 77.6783 43.7088 77.6783 43.7041C77.6783 43.6994 77.6783 43.6947 77.6783 43.69C77.6783 43.6853 77.6783 43.6805 77.6783 43.6758C77.6783 43.6711 77.6783 43.6664 77.6783 43.6617C77.6783 43.657 77.6783 43.6522 77.6783 43.6475C77.6783 43.6428 77.6783 43.6381 77.6783 43.6333C77.6783 43.6286 77.6783 43.6239 77.6783 43.6191C77.6783 43.6144 77.6783 43.6097 77.6783 43.6049C77.6783 43.6002 77.6783 43.5955 77.6783 43.5907C77.6783 43.586 77.6783 43.5813 77.6783 43.5765C77.6783 43.5718 77.6783 43.5671 77.6783 43.5623C77.6783 43.5576 77.6783 43.5528 77.6783 43.5481C77.6783 43.5433 77.6783 43.5386 77.6783 43.5338C77.6783 43.5291 77.6783 43.5244 77.6783 43.5196C77.6783 43.5149 77.6783 43.5101 77.6783 43.5054C77.6783 43.5006 77.6783 43.4959 77.6783 43.4911C77.6783 43.4864 77.6783 43.4816 77.6783 43.4768C77.6783 43.4721 77.6783 43.4673 77.6783 43.4626C77.6783 43.4578 77.6783 43.4531 77.6783 43.4483C77.6783 43.4435 77.6783 43.4388 77.6783 43.434C77.6783 43.4293 77.6783 43.4245 77.6783 43.4197C77.6783 43.415 77.6783 43.4102 77.6783 43.4054C77.6783 43.4007 77.6783 43.3959 77.6783 43.3911C77.6783 43.3864 77.6783 43.3816 77.6783 43.3768C77.6783 43.3721 77.6783 43.3673 77.6783 43.3625C77.6783 43.3578 77.6783 43.353 77.6783 43.3482C77.6783 43.3435 77.6783 43.3387 77.6783 43.3339C77.6783 43.3291 77.6783 43.3244 77.6783 43.3196C77.6783 43.3148 77.6783 43.31 77.6783 43.3053C77.6783 43.3005 77.6783 43.2957 77.6783 43.2909C77.6783 43.2862 77.6783 43.2814 77.6783 43.2766C77.6783 43.2718 77.6783 43.2671 77.6783 43.2623C77.6783 43.2575 77.6783 43.2527 77.6783 43.2479C77.6783 43.2432 77.6783 43.2384 77.6783 43.2336C77.6783 43.2288 77.6783 43.224 77.6783 43.2193C77.6783 43.2145 77.6783 43.2097 77.6783 43.2049C77.6783 43.2001 77.6783 43.1953 77.6783 43.1906C77.6783 43.1858 77.6783 43.181 77.6783 43.1762C77.6783 43.1714 77.6783 43.1666 77.6783 43.1619C77.6783 43.1571 77.6783 43.1523 77.6783 43.1475C77.6783 43.1427 77.6783 43.1379 77.6783 43.1332C77.6783 43.1284 77.6783 43.1236 77.6783 43.1188C77.6783 43.114 77.6783 43.1092 77.6783 43.1045C77.6783 43.0997 77.6783 43.0949 77.6783 43.0901C77.6783 43.0853 77.6783 43.0805 77.6783 43.0757C77.6783 43.071 77.6783 43.0662 77.6783 43.0614C77.6783 43.0566 77.6783 43.0518 77.6783 43.047C77.6783 43.0422 77.6783 43.0375 77.6783 43.0327C77.6783 43.0279 77.6783 43.0231 77.6783 43.0183C77.6783 43.0135 77.6783 43.0088 77.6783 43.004C77.6783 42.9992 77.6783 42.9944 77.6783 42.9896C77.6783 42.9848 77.6783 42.98 77.6783 42.9753C77.6783 42.9705 77.6783 42.9657 77.6783 42.9609C77.6783 42.9561 77.6783 42.9513 77.6783 42.9466C77.6783 42.9418 77.6783 42.937 77.6783 42.9322C77.6783 42.9274 77.6783 42.9227 77.6783 42.9179C77.6783 42.9131 77.6783 42.9083 77.6783 42.9035C77.6783 42.8988 77.6783 42.894 77.6783 42.8892C77.6783 42.8844 77.6783 42.8796 77.6783 42.8749C77.6783 42.8701 77.6783 42.8653 77.6783 42.8605C77.6783 42.8557 77.6783 42.851 77.6783 42.8462C77.6783 42.8414 77.6783 42.8366 77.6783 42.8319C77.6783 42.8271 77.6783 42.8223 77.6783 42.8175C77.6783 42.8128 77.6783 42.808 77.6783 42.8032C77.6783 42.7985 77.6783 42.7937 77.6783 42.7889C77.6783 42.7841 77.6783 42.7794 77.6783 42.7746C77.6783 42.7698 77.6783 42.7651 77.6783 42.7603C77.6783 42.7555 77.6783 42.7508 77.6783 42.746C77.6783 42.7412 77.6783 42.7365 77.6783 42.7317C77.6783 42.7269 77.6783 42.7222 77.6783 42.7174C77.6783 42.7126 77.6783 42.7079 77.6783 42.7031C77.6783 42.6984 77.6783 42.6936 77.6783 42.6888C77.6783 42.6841 77.6783 42.6793 77.6783 42.6746C77.6783 42.6698 77.6783 42.6651 77.6783 42.6603C77.6783 42.6556 77.6783 42.6508 77.6783 42.646C77.6783 42.6413 77.6783 42.6365 77.6783 42.6318C77.6783 42.627 77.6783 42.6223 77.6783 42.6175C77.6783 42.6128 77.6783 42.608 77.6783 42.6033C77.6783 42.5986 77.6783 42.5938 77.6783 42.5891C77.6783 42.5843 77.6783 42.5796 77.6783 42.5748C77.6783 42.5701 77.6783 42.5654 77.6783 42.5606C77.6783 42.5559 77.6783 42.5512 77.6783 42.5464C77.6783 42.5417 77.6783 42.5369 77.6783 42.5322C77.6783 42.5275 77.6783 42.5228 77.6783 42.518C77.6783 42.5133 77.6783 42.5086 77.6783 42.5038C77.6783 42.4991 77.6783 42.4944 77.6783 42.4897C77.6783 42.4849 77.6783 42.4802 77.6783 42.4755C77.6783 42.4708 77.6783 42.4661 77.6783 42.4613C77.6783 42.4566 77.6783 42.4519 77.6783 42.4472C77.6783 42.4425 77.6783 42.4378 77.6783 42.4331C77.6783 42.4283 77.6783 42.4236 77.6783 42.4189C77.6783 42.4142 77.6783 42.4095 77.6783 42.4048C77.6783 42.4001 77.6783 42.3954 77.6783 42.3907C77.6783 42.386 77.6783 42.3813 77.6783 42.3766C77.6783 42.3719 77.6783 42.3672 77.6783 42.3625C77.6783 42.3578 77.6783 42.3531 77.6783 42.3484C77.6783 42.3438 77.6783 42.3391 77.6783 42.3344C77.6783 42.3297 77.6783 42.325 77.6783 42.3203C77.6783 42.3156 77.6783 42.311 77.6783 42.3063C77.6783 42.3016 77.6783 42.2969 77.6783 42.2923C77.6783 42.2876 77.6783 42.2829 77.6783 42.2782C77.6783 42.2736 77.6783 42.2689 77.6783 42.2642C77.6783 42.2596 77.6783 42.2549 77.6783 42.2502C77.6783 42.2456 77.6783 42.2409 77.6783 42.2363C77.6783 42.2316 77.6783 42.227 77.6783 42.2223C77.6783 42.2176 77.6783 42.213 77.6783 42.2083C77.6783 42.2037 77.6783 42.1991 77.6783 42.1944C77.6783 42.1898 77.6783 42.1851 77.6783 42.1805C77.6783 42.1758 77.6783 42.1712 77.6783 42.1666C77.6783 42.1619 77.6783 42.1573 77.6783 42.1527C77.6783 42.1481 77.6783 42.1434 77.6783 42.1388C77.6783 42.1342 77.6783 42.1296 77.6783 42.1249C77.6783 42.1203 77.6783 42.1157 77.6783 42.1111C77.6783 42.1065 77.6783 42.1019 77.6783 42.0972C77.6783 42.0926 77.6783 42.088 77.6783 42.0834C77.6783 42.0788 77.6783 42.0742 77.6783 42.0696C77.6783 42.065 77.6783 42.0604 77.6783 42.0558C77.6783 42.0512 77.6783 42.0466 77.6783 42.042C77.6783 42.0375 77.6783 42.0329 77.6783 42.0283C77.6783 42.0237 77.6783 42.0191 77.6783 42.0145C77.6783 42.01 77.6783 42.0054 77.6783 42.0008C77.6783 41.9963 77.6783 41.9917 77.6783 41.9871C77.6783 41.9825 77.6783 41.978 77.6783 41.9734C77.6783 41.9689 77.6783 41.9643 77.6783 41.9597C77.6783 41.9552 77.6783 41.9506 77.6783 41.9461C77.6783 41.9415 77.6783 41.937 77.6783 41.9325C77.6783 41.9279 77.6783 41.9234 77.6783 41.9188C77.6783 41.9143 77.6783 41.9098 77.6783 41.9052C77.6783 41.9007 77.6783 41.8962 77.6783 41.8916C77.6783 41.8871 77.6783 41.8826 77.6783 41.8781C77.6783 41.8736 77.6783 41.869 77.6783 41.8645C77.6783 41.86 77.6783 41.8555 77.6783 41.851C77.6783 41.8465 77.6783 41.842 77.6783 41.8375C77.6783 41.833 77.6783 41.8285 77.6783 41.824C77.6783 41.8195 77.6783 41.815 77.6783 41.8105C77.6783 41.8061 77.6783 41.8016 77.6783 41.7971C77.6783 41.7926 77.6783 41.7881 77.6783 41.7837C77.6783 41.7792 77.6783 41.7747 77.6783 41.7703C77.6783 41.7658 77.6783 41.7613 77.6783 41.7569C77.6783 41.7524 77.6783 41.748 77.6783 41.7435C77.6783 41.7391 77.6783 41.7346 77.6783 41.7302C77.6783 41.7257 77.6783 41.7213 77.6783 41.7168C77.6783 41.7124 77.6783 41.708 77.6783 41.7035C77.6783 41.6991 77.6783 41.6947 77.6783 41.6903C77.6783 41.6858 77.6783 41.6814 77.6783 41.677C77.6783 41.6726 77.6783 41.6682 77.6783 41.6638C77.6783 41.6594 77.6783 41.655 77.6783 41.6506C77.6783 41.6462 77.6783 41.6418 77.6783 41.6374C77.6783 41.633 77.6783 41.6286 77.6783 41.6242C77.6783 41.6198 77.6783 41.6154 77.6783 41.6111C77.6783 41.6067 77.6783 41.6023 77.6783 41.5979C77.6783 41.5936 77.6783 41.5892 77.6783 41.5848C77.6783 41.5805 77.6783 41.5761 77.6783 41.5718C77.6783 41.5674 77.6783 41.5631 77.6783 41.5587C77.6783 41.5544 77.6783 41.55 77.6783 41.5457C77.6783 41.5413 77.6783 41.537 77.6783 41.5327C77.6783 41.5284 77.6783 41.524 77.6783 41.5197C77.6783 41.5154 77.6783 41.5111 77.6783 41.5068C77.6783 41.5024 77.6783 41.4981 77.6783 41.4938C77.6783 41.4895 77.6783 41.4852 77.6783 41.4809C77.6783 41.4766 77.6783 41.4723 77.6783 41.4681C77.6783 41.4638 77.6783 41.4595 77.6783 41.4552C77.6783 41.4509 77.6783 41.4467 77.6783 41.4424C77.6783 41.4381 77.6783 41.4338 77.6783 41.4296C77.6783 41.4253 77.6783 41.4211 77.6783 41.4168C77.6783 41.4126 77.6783 41.4083 77.6783 41.4041C77.6783 41.3998 77.6783 41.3956 77.6783 41.3914C77.6783 41.3871 77.6783 41.3829 77.6783 41.3787C77.6783 41.3744 77.6783 41.3702 77.6783 41.366C77.6783 41.3618 77.6783 41.3576 77.6783 41.3534C77.6783 41.3492 77.6783 41.345 77.6783 41.3408C77.6783 41.3366 77.6783 41.3324 77.6783 41.3282C77.6783 41.324 77.6783 41.3198 77.6783 41.3156C77.6783 41.3115 77.6783 41.3073 77.6783 41.3031C77.6783 41.2989 77.6783 41.2948 77.6783 41.2906C77.6783 41.2865 77.6783 41.2823 77.6783 41.2782C77.6783 41.274 77.6783 41.2699 77.6783 41.2657C77.6783 41.2616 77.6783 41.2575 77.6783 41.2533C77.6783 41.2492 77.6783 41.2451 77.6783 41.2409C77.6783 41.2368 77.6783 41.2327 77.6783 41.2286C77.6783 41.2245 77.6783 41.2204 77.6783 41.2163C77.6783 41.2122 77.6783 41.2081 77.6783 41.204C77.6783 41.1999 77.6783 41.1958 77.6783 41.1917C77.6783 41.1877 77.6783 41.1836 77.6783 41.1795C77.6783 41.1754 77.6783 41.1714 77.6783 41.1673C77.6783 41.1633 77.6783 41.1592 77.6783 41.1552C77.6783 41.1511 77.6783 41.1471 77.6783 41.143C77.6783 41.139 77.6783 41.135 77.6783 41.1309C77.6783 41.1269 77.6783 41.1229 77.6783 41.1189C77.6783 41.1148 77.6783 41.1108 77.6783 41.1068C77.6783 41.1028 77.6783 41.0988 77.6783 41.0948C77.6783 41.0908 77.6783 41.0868 77.6783 41.0829C77.6783 41.0789 77.6783 41.0749 77.6783 41.0709C77.6783 41.0669 77.6783 41.063 77.6783 41.059C77.6783 41.0551 77.6783 41.0511 77.6783 41.0471C77.6783 41.0432 77.6783 41.0392 77.6783 41.0353C77.6783 41.0314 77.6783 41.0274 77.6783 41.0235C77.6783 41.0196 77.6783 41.0157 77.6783 41.0117C77.6783 41.0078 77.6783 41.0039 77.6783 41H75.6783ZM76.6783 46.5C77.522 47.0369 77.5219 47.0369 77.5219 47.037C77.5219 47.037 77.5219 47.037 77.5219 47.0369C77.522 47.0369 77.522 47.0367 77.5222 47.0365C77.5225 47.0361 77.523 47.0353 77.5237 47.0342C77.5251 47.032 77.5273 47.0285 77.5304 47.0237C77.5365 47.0142 77.5458 46.9997 77.5582 46.9805C77.5829 46.9422 77.6199 46.8851 77.6678 46.8121C77.7637 46.666 77.9029 46.4562 78.0748 46.204C78.4196 45.6983 78.8919 45.0281 79.4071 44.3614C79.9267 43.6889 80.4695 43.0468 80.9555 42.582C81.1994 42.3487 81.4046 42.1838 81.565 42.083C81.7463 41.969 81.7709 42 81.6783 42V40C81.2107 40 80.7978 40.2029 80.5006 40.3897C80.1825 40.5897 79.8682 40.8544 79.573 41.1367C78.9808 41.7032 78.3674 42.4361 77.8245 43.1386C77.2772 43.8469 76.7808 44.5517 76.4224 45.0773C76.2428 45.3407 76.0968 45.5606 75.9954 45.7153C75.9447 45.7926 75.905 45.8537 75.8778 45.8959C75.8642 45.917 75.8537 45.9334 75.8464 45.9447C75.8428 45.9504 75.84 45.9548 75.838 45.9578C75.837 45.9594 75.8362 45.9606 75.8357 45.9615C75.8354 45.9619 75.8352 45.9623 75.835 45.9626C75.8349 45.9627 75.8348 45.9628 75.8348 45.9629C75.8347 45.963 75.8346 45.9631 76.6783 46.5ZM81.6783 42C81.6291 42 81.5047 41.9733 81.4033 41.871C81.333 41.8 81.3444 41.7613 81.3715 41.8679C81.4319 42.1067 81.4421 42.4949 81.4451 43.123C81.4478 43.6884 81.4476 44.4006 81.5526 45.0821C81.6577 45.7638 81.883 46.5302 82.4215 47.1536L83.9351 45.8464C83.746 45.6274 83.6075 45.285 83.5293 44.7775C83.451 44.2697 83.448 43.7122 83.4451 43.1133C83.4425 42.5771 83.4443 41.9062 83.3102 41.3769C83.24 41.0996 83.1077 40.7497 82.8241 40.4634C82.5096 40.1459 82.1025 40 81.6783 40V42ZM82.4215 47.1536C83.3013 48.1724 84.6416 48.5904 85.9371 48.7403C87.2564 48.8929 88.7101 48.7886 90.0286 48.5981C91.3556 48.4062 92.5927 48.1198 93.4945 47.8828C93.9467 47.764 94.3175 47.6568 94.5767 47.5789C94.7064 47.5399 94.8083 47.5082 94.8788 47.4859C94.914 47.4748 94.9413 47.466 94.9604 47.4598C94.9699 47.4568 94.9773 47.4543 94.9826 47.4526C94.9852 47.4517 94.9873 47.4511 94.9889 47.4505C94.9897 47.4503 94.9903 47.4501 94.9908 47.4499C94.9911 47.4498 94.9914 47.4497 94.9915 47.4497C94.9917 47.4496 94.992 47.4495 94.6783 46.5C94.3646 45.5505 94.3648 45.5504 94.3649 45.5504C94.3649 45.5504 94.365 45.5504 94.3649 45.5504C94.3649 45.5504 94.3647 45.5504 94.3644 45.5505C94.3638 45.5507 94.3627 45.5511 94.361 45.5516C94.3577 45.5527 94.3522 45.5545 94.3447 45.5569C94.3298 45.5618 94.3066 45.5692 94.2756 45.579C94.2137 45.5986 94.1209 45.6275 94.001 45.6636C93.7609 45.7357 93.4128 45.8364 92.9862 45.9485C92.1306 46.1733 90.9714 46.441 89.7424 46.6186C88.505 46.7975 87.2432 46.878 86.1669 46.7535C85.067 46.6263 84.3316 46.3054 83.9351 45.8464L82.4215 47.1536Z" fill="black"/>
<path d="M96.1231 34.4782C96.1231 34.4782 73.4508 35.5817 71.1231 25.9782C68.7954 16.3748 100.251 -7.0832 100.251 3.83696C100.251 13.3369 91.1231 79.4783 91.1231 79.4783" stroke="black" stroke-width="2" stroke-linecap="round"/>
<path d="M100.178 42.5C100.178 42.5 101.252 41.3087 102.178 41C104.957 40.0738 100.037 46.5015 102.178 48.5C105.107 51.2337 109.178 41 109.178 41V48.5C109.178 48.5 113.749 44.2337 116.678 41.5M122.178 41C122.178 41 119 39 116.678 41.5M116.678 41.5C116.678 41.5 112.919 46.8534 115.178 48.5C118.526 50.9397 122.678 41 122.678 41C122.678 41 120.675 46.3632 122.678 48.5C125.607 51.6242 130.678 41 130.678 41V48.5C130.678 48.5 134.749 38.2663 137.678 41C139.82 42.9985 135.059 47.1901 137.678 48.5C140.678 50 152.678 47 152.678 47" stroke="black" stroke-width="2" stroke-linecap="round" stroke-linejoin="round"/>
</svg>
